# Blender v2.74 (sub 0) OBJ File: ''
# www.blender.org
mtllib chair.mtl
o Box8
v -0.527800 -0.086450 0.375300
v -0.527800 -0.086450 -0.399500
v -0.527800 -0.183950 0.375300
v -0.527800 -0.183950 -0.399500
v -0.616000 -0.086450 -0.399500
v -0.616000 -0.086450 0.375300
v -0.616000 -0.183950 -0.399500
v -0.616000 -0.183950 0.375300
vt 0.000000 1.000000
vt 0.000000 0.000000
vt 1.000000 0.000000
vt 1.000000 1.000000
vn 1.000000 0.000000 0.000000
vn -1.000000 0.000000 0.000000
vn 0.000000 1.000000 0.000000
vn 0.000000 -1.000000 0.000000
vn 0.000000 0.000000 1.000000
vn 0.000000 0.000000 -1.000000
usemtl ChairWoodMat
s 1
f 1/1/1 3/2/1 4/3/1 2/4/1
f 5/1/2 7/2/2 8/3/2 6/4/2
f 5/1/3 6/2/3 1/3/3 2/4/3
f 8/1/4 7/2/4 4/3/4 3/4/4
f 6/1/5 8/2/5 3/3/5 1/4/5
f 2/1/6 4/2/6 7/3/6 5/4/6
o Box9
v -0.527800 -0.606293 0.527005
v -0.527800 0.403987 0.327447
v -0.527800 -0.625187 0.431353
v -0.527800 0.385093 0.231795
v -0.616000 0.403987 0.327447
v -0.616000 -0.606293 0.527005
v -0.616000 0.385093 0.231795
v -0.616000 -0.625187 0.431353
vt 0.000000 1.000000
vt 0.000000 0.000000
vt 1.000000 0.000000
vt 1.000000 1.000000
vn 1.000000 0.000000 0.000000
vn -1.000000 -0.000000 0.000000
vn 0.000000 0.193800 0.981000
vn 0.000000 -0.193800 -0.981000
vn 0.000000 -0.981000 0.193800
vn 0.000000 0.981000 -0.193800
usemtl ChairWoodMat
s 1
f 9/5/7 11/6/7 12/7/7 10/8/7
f 13/5/8 15/6/8 16/7/8 14/8/8
f 13/5/9 14/6/9 9/7/9 10/8/9
f 16/5/10 15/6/10 12/7/10 11/8/10
f 14/5/11 16/6/11 11/7/11 9/8/11
f 10/5/12 12/6/12 15/7/12 13/8/12
o Box10
v -0.527800 0.429350 0.406100
v -0.527800 0.429350 -0.396100
v -0.527800 0.331850 0.406100
v -0.527800 0.331850 -0.396100
v -0.616000 0.429350 -0.396100
v -0.616000 0.429350 0.406100
v -0.616000 0.331850 -0.396100
v -0.616000 0.331850 0.406100
vt 0.000000 1.000000
vt 0.000000 0.000000
vt 1.000000 0.000000
vt 1.000000 1.000000
vn 1.000000 0.000000 0.000000
vn -1.000000 0.000000 0.000000
vn 0.000000 1.000000 0.000000
vn 0.000000 -1.000000 0.000000
vn 0.000000 0.000000 1.000000
vn 0.000000 0.000000 -1.000000
usemtl ChairWoodMat
s 1
f 17/9/13 19/10/13 20/11/13 18/12/13
f 21/9/14 23/10/14 24/11/14 22/12/14
f 21/9/15 22/10/15 17/11/15 18/12/15
f 24/9/16 23/10/16 20/11/16 19/12/16
f 22/9/17 24/10/17 19/11/17 17/12/17
f 18/9/18 20/10/18 23/11/18 21/12/18
o Box5
v 0.621700 -0.606293 0.527005
v 0.621700 0.403987 0.327447
v 0.621700 -0.625187 0.431353
v 0.621700 0.385093 0.231795
v 0.533500 0.403987 0.327447
v 0.533500 -0.606293 0.527005
v 0.533500 0.385093 0.231795
v 0.533500 -0.625187 0.431353
vt 0.000000 1.000000
vt 0.000000 0.000000
vt 1.000000 0.000000
vt 1.000000 1.000000
vn 1.000000 0.000000 0.000000
vn -1.000000 0.000000 0.000000
vn 0.000000 0.193800 0.981000
vn 0.000000 -0.193800 -0.981000
vn 0.000000 -0.981000 0.193800
vn 0.000000 0.981000 -0.193800
usemtl ChairWoodMat
s 1
f 25/13/19 27/14/19 28/15/19 26/16/19
f 29/13/20 31/14/20 32/15/20 30/16/20
f 29/13/21 30/14/21 25/15/21 26/16/21
f 32/13/22 31/14/22 28/15/22 27/16/22
f 30/13/23 32/14/23 27/15/23 25/16/23
f 26/13/24 28/14/24 31/15/24 29/16/24
o Box2
v 0.621700 0.429350 0.406100
v 0.621700 0.429350 -0.396100
v 0.621700 0.331850 0.406100
v 0.621700 0.331850 -0.396100
v 0.533500 0.429350 -0.396100
v 0.533500 0.429350 0.406100
v 0.533500 0.331850 -0.396100
v 0.533500 0.331850 0.406100
vt 0.000000 1.000000
vt 0.000000 0.000000
vt 1.000000 0.000000
vt 1.000000 1.000000
vn 1.000000 0.000000 0.000000
vn -1.000000 0.000000 0.000000
vn 0.000000 1.000000 0.000000
vn 0.000000 -1.000000 0.000000
vn 0.000000 0.000000 1.000000
vn 0.000000 0.000000 -1.000000
usemtl ChairWoodMat
s 1
f 33/17/25 35/18/25 36/19/25 34/20/25
f 37/17/26 39/18/26 40/19/26 38/20/26
f 37/17/27 38/18/27 33/19/27 34/20/27
f 40/17/28 39/18/28 36/19/28 35/20/28
f 38/17/29 40/18/29 35/19/29 33/20/29
f 34/17/30 36/18/30 39/19/30 37/20/30
o Box1
v 0.528150 -0.042699 -0.382448
v 0.528150 0.734195 -0.598216
v 0.528150 -0.089395 -0.550584
v 0.528150 0.687499 -0.766352
v -0.528150 0.734195 -0.598216
v -0.528150 -0.042699 -0.382448
v -0.528150 0.687499 -0.766352
v -0.528150 -0.089395 -0.550584
vt 0.000000 1.000000
vt 0.000000 0.000000
vt 1.000000 0.000000
vt 1.000000 1.000000
vn 1.000000 0.000000 0.000000
vn -1.000000 0.000000 0.000000
vn 0.000000 0.267600 0.963500
vn 0.000000 -0.267600 -0.963500
vn 0.000000 -0.963500 0.267600
vn 0.000000 0.963500 -0.267600
usemtl ChairMat
s 1
f 41/21/31 43/22/31 44/23/31 42/24/31
f 45/21/32 47/22/32 48/23/32 46/24/32
f 45/21/33 46/22/33 41/23/33 42/24/33
f 48/21/34 47/22/34 44/23/34 43/24/34
f 46/21/35 48/22/35 43/23/35 41/24/35
f 42/21/36 44/22/36 47/23/36 45/24/36
o Box7
v -0.527800 -0.621100 -0.450396
v -0.527800 0.375253 -0.190071
v -0.527800 -0.596453 -0.544729
v -0.527800 0.399900 -0.284404
v -0.616000 0.375253 -0.190071
v -0.616000 -0.621100 -0.450396
v -0.616000 0.399900 -0.284404
v -0.616000 -0.596453 -0.544729
vt 0.000000 1.000000
vt 0.000000 0.000000
vt 1.000000 0.000000
vt 1.000000 1.000000
vn 1.000000 -0.000000 0.000000
vn -1.000000 0.000000 0.000000
vn 0.000000 -0.252800 0.967500
vn 0.000000 0.252800 -0.967500
vn 0.000000 -0.967500 -0.252800
vn 0.000000 0.967500 0.252800
usemtl ChairWoodMat
s 1
f 49/25/37 51/26/37 52/27/37 50/28/37
f 53/25/38 55/26/38 56/27/38 54/28/38
f 53/25/39 54/26/39 49/27/39 50/28/39
f 56/25/40 55/26/40 52/27/40 51/28/40
f 54/25/41 56/26/41 51/27/41 49/28/41
f 50/25/42 52/26/42 55/27/42 53/28/42
o Box
v 0.528150 0.086000 0.528150
v 0.528150 0.086000 -0.528150
v 0.528150 -0.100600 0.528150
v 0.528150 -0.100600 -0.528150
v -0.528150 0.086000 -0.528150
v -0.528150 0.086000 0.528150
v -0.528150 -0.100600 -0.528150
v -0.528150 -0.100600 0.528150
vt 0.000000 1.000000
vt 0.000000 0.000000
vt 1.000000 0.000000
vt 1.000000 1.000000
vn 1.000000 0.000000 0.000000
vn -1.000000 0.000000 0.000000
vn 0.000000 1.000000 0.000000
vn 0.000000 -1.000000 0.000000
vn 0.000000 0.000000 1.000000
vn 0.000000 0.000000 -1.000000
usemtl ChairMat
s 1
f 57/29/43 59/30/43 60/31/43 58/32/43
f 61/29/44 63/30/44 64/31/44 62/32/44
f 61/29/45 62/30/45 57/31/45 58/32/45
f 64/29/46 63/30/46 60/31/46 59/32/46
f 62/29/47 64/30/47 59/31/47 57/32/47
f 58/29/48 60/30/48 63/31/48 61/32/48
o Box6
v 0.621700 -0.621100 -0.450396
v 0.621700 0.375253 -0.190071
v 0.621700 -0.596453 -0.544729
v 0.621700 0.399900 -0.284404
v 0.533500 0.375253 -0.190071
v 0.533500 -0.621100 -0.450396
v 0.533500 0.399900 -0.284404
v 0.533500 -0.596453 -0.544729
vt 0.000000 1.000000
vt 0.000000 0.000000
vt 1.000000 0.000000
vt 1.000000 1.000000
vn 1.000000 -0.000000 0.000000
vn -1.000000 0.000000 0.000000
vn 0.000000 -0.252800 0.967500
vn 0.000000 0.252800 -0.967500
vn 0.000000 -0.967500 -0.252800
vn 0.000000 0.967500 0.252800
usemtl ChairWoodMat
s 1
f 65/33/49 67/34/49 68/35/49 66/36/49
f 69/33/50 71/34/50 72/35/50 70/36/50
f 69/33/51 70/34/51 65/35/51 66/36/51
f 72/33/52 71/34/52 68/35/52 67/36/52
f 70/33/53 72/34/53 67/35/53 65/36/53
f 66/33/54 68/34/54 71/35/54 69/36/54
o Box11
v -0.536100 -0.106250 -0.247100
v 0.539900 -0.106250 -0.247100
v -0.536100 -0.203750 -0.247100
v 0.539900 -0.203750 -0.247100
v 0.539900 -0.106250 -0.335300
v -0.536100 -0.106250 -0.335300
v 0.539900 -0.203750 -0.335300
v -0.536100 -0.203750 -0.335300
vt 0.000000 1.000000
vt 0.000000 0.000000
vt 1.000000 0.000000
vt 1.000000 1.000000
vn -0.000000 0.000000 1.000000
vn 0.000000 0.000000 -1.000000
vn 0.000000 1.000000 0.000000
vn 0.000000 -1.000000 0.000000
vn -1.000000 0.000000 0.000000
vn 1.000000 0.000000 0.000000
usemtl ChairWoodMat
s 1
f 73/37/55 75/38/55 76/39/55 74/40/55
f 77/37/56 79/38/56 80/39/56 78/40/56
f 77/37/57 78/38/57 73/39/57 74/40/57
f 80/37/58 79/38/58 76/39/58 75/40/58
f 78/37/59 80/38/59 75/39/59 73/40/59
f 74/37/60 76/38/60 79/39/60 77/40/60
o Box3
v -0.536100 -0.106250 0.338000
v 0.539900 -0.106250 0.338000
v -0.536100 -0.203750 0.338000
v 0.539900 -0.203750 0.338000
v 0.539900 -0.106250 0.249800
v -0.536100 -0.106250 0.249800
v 0.539900 -0.203750 0.249800
v -0.536100 -0.203750 0.249800
vt 0.000000 1.000000
vt 0.000000 0.000000
vt 1.000000 0.000000
vt 1.000000 1.000000
vn -0.000000 0.000000 1.000000
vn 0.000000 0.000000 -1.000000
vn 0.000000 1.000000 0.000000
vn 0.000000 -1.000000 0.000000
vn -1.000000 0.000000 0.000000
vn 1.000000 0.000000 0.000000
usemtl ChairWoodMat
s 1
f 81/41/61 83/42/61 84/43/61 82/44/61
f 85/41/62 87/42/62 88/43/62 86/44/62
f 85/41/63 86/42/63 81/43/63 82/44/63
f 88/41/64 87/42/64 84/43/64 83/44/64
f 86/41/65 88/42/65 83/43/65 81/44/65
f 82/41/66 84/42/66 87/43/66 85/44/66
o Box4
v 0.621700 -0.086450 0.375300
v 0.621700 -0.086450 -0.399500
v 0.621700 -0.183950 0.375300
v 0.621700 -0.183950 -0.399500
v 0.533500 -0.086450 -0.399500
v 0.533500 -0.086450 0.375300
v 0.533500 -0.183950 -0.399500
v 0.533500 -0.183950 0.375300
vt 0.000000 1.000000
vt 0.000000 0.000000
vt 1.000000 0.000000
vt 1.000000 1.000000
vn 1.000000 0.000000 0.000000
vn -1.000000 0.000000 0.000000
vn 0.000000 1.000000 0.000000
vn 0.000000 -1.000000 0.000000
vn 0.000000 0.000000 1.000000
vn 0.000000 0.000000 -1.000000
usemtl ChairWoodMat
s 1
f 89/45/67 91/46/67 92/47/67 90/48/67
f 93/45/68 95/46/68 96/47/68 94/48/68
f 93/45/69 94/46/69 89/47/69 90/48/69
f 96/45/70 95/46/70 92/47/70 91/48/70
f 94/45/71 96/46/71 91/47/71 89/48/71
f 90/45/72 92/46/72 95/47/72 93/48/72
