# Blender v2.74 (sub 0) OBJ File: ''
# www.blender.org
mtllib house-floor-plan.mtl
o Merged_Meshes
v -47.208599 5.000000 -4.211002
v -47.208599 5.000000 25.788998
v -46.208599 5.000000 25.788998
v -46.208599 5.000000 -4.211002
v -47.208599 0.000000 -4.211002
v -47.208599 -0.000000 25.788998
v -46.208599 -0.000000 25.788998
v -46.208599 0.000000 -4.211002
v -66.255997 5.000000 -3.657101
v -46.256001 5.000000 -3.657101
v -46.256001 5.000000 -4.657101
v -66.255997 5.000000 -4.657101
v -66.255997 0.000000 -3.657101
v -46.256001 -0.000000 -3.657101
v -46.256001 -0.000000 -4.657101
v -66.255997 0.000000 -4.657101
v -66.255997 4.688363 -3.657101
v -46.256001 4.688363 -3.657101
v -46.256001 4.688363 -4.657101
v -66.255997 4.688363 -4.657101
v -46.625500 5.000000 14.757899
v -56.625500 5.000000 14.757899
v -56.625500 5.000000 15.757899
v -46.625500 5.000000 15.757899
v -46.625500 0.000000 14.757899
v -56.625500 -0.000000 14.757899
v -56.625500 -0.000000 15.757899
v -46.625500 0.000000 15.757899
v -84.556702 5.000000 35.394104
v -84.556702 5.000000 15.394100
v -85.556702 5.000000 15.394100
v -85.556702 5.000000 35.394104
v -84.556702 0.000000 35.394104
v -84.556702 -0.000000 15.394100
v -85.556702 -0.000000 15.394100
v -85.556702 0.000000 35.394104
v -65.281998 5.000000 34.393799
v -85.281998 5.000000 34.393799
v -85.281998 5.000000 35.393799
v -65.281998 5.000000 35.393799
v -65.281998 0.000000 34.393799
v -85.281998 -0.000000 34.393799
v -85.281998 -0.000000 35.393799
v -65.281998 0.000000 35.393799
v -66.309204 5.000000 5.397699
v -66.309204 5.000000 15.397699
v -65.309204 5.000000 15.397699
v -65.309204 5.000000 5.397699
v -66.309204 0.000000 5.397699
v -66.309204 -0.000000 15.397699
v -65.309204 -0.000000 15.397699
v -65.309204 0.000000 5.397699
v -85.174500 5.000000 -3.695201
v -65.174500 5.000000 -3.695201
v -65.174500 5.000000 -4.695201
v -85.174500 5.000000 -4.695201
v -85.174500 0.000000 -3.695201
v -65.174500 -0.000000 -3.695201
v -65.174500 -0.000000 -4.695201
v -85.174500 0.000000 -4.695201
v -84.556702 5.000000 15.467602
v -84.556702 5.000000 -4.532400
v -85.556702 5.000000 -4.532400
v -85.556702 5.000000 15.467602
v -84.556702 0.000000 15.467602
v -84.556702 -0.000000 -4.532400
v -85.556702 -0.000000 -4.532400
v -85.556702 0.000000 15.467602
v -74.861000 5.000000 14.757899
v -84.861000 5.000000 14.757899
v -84.861000 5.000000 15.757899
v -74.861000 5.000000 15.757899
v -74.861000 0.000000 14.757899
v -84.861000 -0.000000 14.757899
v -84.861000 -0.000000 15.757899
v -74.861000 0.000000 15.757899
v -65.284401 5.000000 35.427704
v -65.284401 5.000000 15.427701
v -66.284401 5.000000 15.427701
v -66.284401 5.000000 35.427704
v -65.284401 0.000000 35.427704
v -65.284401 -0.000000 15.427701
v -66.284401 -0.000000 15.427701
v -66.284401 0.000000 35.427704
v -46.181602 5.000000 34.328300
v -66.181602 5.000000 34.328300
v -66.181602 5.000000 35.328300
v -46.181602 5.000000 35.328300
v -46.181602 0.000000 34.328300
v -66.181602 -0.000000 34.328300
v -66.181602 -0.000000 35.328300
v -46.181602 0.000000 35.328300
vt 0.000000 1.000000
vt 0.000000 0.000000
vt 1.000000 0.000000
vt 1.000000 1.000000
vn -0.577300 0.577300 -0.577300
vn -0.577300 0.577300 0.577300
vn 0.577300 0.577300 0.577300
vn 0.577300 0.577300 -0.577300
vn -0.707100 0.000000 -0.707100
vn -0.707100 0.000000 0.707100
vn 0.707100 0.000000 0.707100
vn 0.707100 0.000000 -0.707100
vn -0.991100 0.107100 -0.078300
vn -0.995600 0.075100 -0.054900
vn -0.989300 0.106900 -0.099600
vn -0.994700 0.075000 -0.069900
usemtl b0b0b0
s 1
f 1/1/1 2/2/2 3/3/3 4/4/4
f 5/2/5 6/2/6 2/2/2 1/2/1
f 6/2/6 7/2/7 3/2/3 2/2/2
f 7/2/7 8/2/8 4/2/4 3/2/3
f 8/2/8 5/2/5 1/2/1 4/2/4
f 17/1/4 18/2/1 19/3/2 20/4/3
f 13/2/6 14/2/7 10/2/9 9/2/10
f 14/2/7 15/2/8 11/2/11 10/2/9
f 15/2/8 16/2/5 12/2/12 11/2/11
f 16/2/5 13/2/6 9/2/10 12/2/12
f 9/2/10 10/2/9 18/2/1 17/2/4
f 10/2/9 11/2/11 19/2/2 18/2/1
f 11/2/11 12/2/12 20/2/3 19/2/2
f 12/2/12 9/2/10 17/2/4 20/2/3
f 21/1/4 22/2/1 23/3/2 24/4/3
f 25/2/8 26/2/5 22/2/1 21/2/4
f 26/2/5 27/2/6 23/2/2 22/2/1
f 27/2/6 28/2/7 24/2/3 23/2/2
f 28/2/7 25/2/8 21/2/4 24/2/3
f 29/1/3 30/2/4 31/3/1 32/4/2
f 33/2/7 34/2/8 30/2/4 29/2/3
f 34/2/8 35/2/5 31/2/1 30/2/4
f 35/2/5 36/2/6 32/2/2 31/2/1
f 36/2/6 33/2/7 29/2/3 32/2/2
f 37/1/4 38/2/1 39/3/2 40/4/3
f 41/2/8 42/2/5 38/2/1 37/2/4
f 42/2/5 43/2/6 39/2/2 38/2/1
f 43/2/6 44/2/7 40/2/3 39/2/2
f 44/2/7 41/2/8 37/2/4 40/2/3
f 45/1/1 46/2/2 47/3/3 48/4/4
f 49/2/5 50/2/6 46/2/2 45/2/1
f 50/2/6 51/2/7 47/2/3 46/2/2
f 51/2/7 52/2/8 48/2/4 47/2/3
f 52/2/8 49/2/5 45/2/1 48/2/4
f 53/1/2 54/2/3 55/3/4 56/4/1
f 57/2/6 58/2/7 54/2/3 53/2/2
f 58/2/7 59/2/8 55/2/4 54/2/3
f 59/2/8 60/2/5 56/2/1 55/2/4
f 60/2/5 57/2/6 53/2/2 56/2/1
f 61/1/3 62/2/4 63/3/1 64/4/2
f 65/2/7 66/2/8 62/2/4 61/2/3
f 66/2/8 67/2/5 63/2/1 62/2/4
f 67/2/5 68/2/6 64/2/2 63/2/1
f 68/2/6 65/2/7 61/2/3 64/2/2
f 69/1/4 70/2/1 71/3/2 72/4/3
f 73/2/8 74/2/5 70/2/1 69/2/4
f 74/2/5 75/2/6 71/2/2 70/2/1
f 75/2/6 76/2/7 72/2/3 71/2/2
f 76/2/7 73/2/8 69/2/4 72/2/3
f 77/1/3 78/2/4 79/3/1 80/4/2
f 81/2/7 82/2/8 78/2/4 77/2/3
f 82/2/8 83/2/5 79/2/1 78/2/4
f 83/2/5 84/2/6 80/2/2 79/2/1
f 84/2/6 81/2/7 77/2/3 80/2/2
f 85/1/4 86/2/1 87/3/2 88/4/3
f 89/2/8 90/2/5 86/2/1 85/2/4
f 90/2/5 91/2/6 87/2/2 86/2/1
f 91/2/6 92/2/7 88/2/3 87/2/2
f 92/2/7 89/2/8 85/2/4 88/2/3
