# 3ds Max Wavefront OBJ Exporter v0.97b - (c)2007 guruware
# File Created: 23.09.2015 08:01:06

mtllib 3d-model.mtl

#
# object Layer0_001
#

v  -400.0001 96.6486 -25.0000
v  496.6486 0.0000 -25.0000
v  -496.6486 0.0000 -25.0000
v  -496.6486 1213.2970 -25.0000
v  -400.0001 1176.6486 -25.0000
v  399.9999 1176.6486 -25.0000
v  496.6486 1213.2970 -25.0000
v  399.9999 96.6486 -25.0000
v  399.9999 96.6486 -15.0001
v  399.9999 1176.6486 -15.0001
v  -400.0001 96.6486 -15.0001
v  -400.0001 1176.6486 -15.0001
v  -382.3448 114.3038 -4.9999
v  -382.3448 114.3038 5.0000
v  382.3447 114.3038 5.0000
v  382.3447 114.3038 -4.9999
v  -460.0000 36.6486 5.0000
v  459.9999 36.6486 5.0000
v  459.9999 1176.6486 5.0000
v  382.3447 1098.9933 5.0000
v  -382.3448 1098.9933 5.0000
v  -460.0000 1176.6486 5.0000
v  399.9999 1176.6486 5.0000
v  -400.0001 1176.6486 5.0000
v  382.3447 1098.9933 -4.9999
v  -382.3448 1098.9933 -4.9999
v  -496.6486 0.0000 25.0000
v  -496.6486 1213.2970 25.0000
v  459.9999 36.6486 25.0000
v  496.6486 0.0000 25.0000
v  496.6486 1213.2970 25.0000
v  459.9999 1176.6486 25.0000
v  -460.0000 1176.6486 25.0000
v  -460.0000 36.6486 25.0000
# 34 vertices

vn 0.0000 0.0000 -1.0000
vn -1.0000 0.0000 -0.0000
vn 0.0000 1.0000 -0.0000
vn 0.0000 -1.0000 -0.0000
vn 0.0000 0.0000 1.0000
vn 1.0000 0.0000 -0.0000
# 6 vertex normals

vt 0.0000 0.0000 0.0000
vt 1.0000 0.0000 0.0000
vt 1.0000 0.9889 0.0000
vt 0.0000 0.9889 0.0000
# 4 texture coords

g Layer0_001
usemtl wire_006134006
s off
f 1/1/1 2/1/1 3/1/1 4/1/1 
f 5/1/1 1/1/1 4/1/1 6/1/1 
f 6/1/1 4/1/1 7/1/1 8/1/1 
f 8/1/1 7/1/1 2/1/1 1/1/1 
f 9/1/2 10/1/2 6/1/2 8/1/2 
f 1/1/3 11/1/3 9/1/3 8/1/3 
f 12/1/4 5/1/4 6/1/4 10/1/4 
f 13/1/3 14/1/3 15/1/3 16/1/3 
f 11/1/5 9/1/5 10/1/5 12/1/5 
f 15/1/5 17/1/5 18/1/5 19/1/5 
f 20/1/5 15/1/5 19/1/5 21/1/5 
f 21/1/5 19/1/5 22/1/5 14/1/5 
f 14/1/5 22/1/5 17/1/5 15/1/5 
f 22/1/5 19/1/5 23/1/5 24/1/5 
f 12/1/6 11/1/6 1/1/6 5/1/6 
f 15/1/2 20/1/2 25/1/2 16/1/2 
f 21/1/4 26/1/4 25/1/4 20/1/4 
f 21/1/6 14/1/6 13/1/6 26/1/6 
f 8/1/1 1/1/1 5/1/1 6/1/1 
f 24/1/4 12/1/4 10/1/4 23/1/4 
f 13/1/5 16/2/5 25/3/5 26/4/5 
f 27/1/2 28/1/2 4/1/2 3/1/2 
f 29/1/5 27/1/5 30/1/5 31/1/5 
f 32/1/5 29/1/5 31/1/5 33/1/5 
f 33/1/5 31/1/5 28/1/5 34/1/5 
f 34/1/5 28/1/5 27/1/5 29/1/5 
f 27/1/4 3/1/4 2/1/4 30/1/4 
f 33/1/6 34/1/6 17/1/6 22/1/6 
f 31/1/6 30/1/6 2/1/6 7/1/6 
f 29/1/2 32/1/2 19/1/2 18/1/2 
f 17/1/3 34/1/3 29/1/3 18/1/3 
f 4/1/3 28/1/3 31/1/3 7/1/3 
f 33/1/4 22/1/4 24/1/4 32/1/4 
f 32/1/4 24/1/4 23/1/4 19/1/4 
# 34 polygons

